# xmcd CD database file
#
# Track frame offsets:
#	180
#	21766
#	38483
#	54072
#	73393
#	87435
#	100792
#	116227
#	140340
#	154010
#	169678
#	200190
#
# Disc length: 2885 seconds
#
# Revision: 2
# Processed by: cddbd v1.5.1PL0 Copyright (c) Steve Scherf et al.
# Submitted via: CDex 1.40Release
#
DISCID=a00b430c
DTITLE=The Mike Hosty Trio - Volume
DYEAR=1996
DGENRE=Rock
TTITLE0=Bus Stop
TTITLE1=Dishwasher
TTITLE2=I Will Work For Booty
TTITLE3=Maintain
TTITLE4=Ribtip
TTITLE5=Took The Train
TTITLE6=Maybe
TTITLE7=Motion
TTITLE8=Tell Me
TTITLE9=Devil Sent Me You
TTITLE10=Chicken Bone
TTITLE11=The Groove
EXTD=YEAR: 1996 ID3G: 17
EXTT0=
EXTT1=
EXTT2=
EXTT3=
EXTT4=
EXTT5=
EXTT6=
EXTT7=
EXTT8=
EXTT9=
EXTT10=
EXTT11=
PLAYORDER=
